# xmcd
#
# Track frame offsets: 
#        150
#        17169
#        35132
#        54290
#        71547
#        87696
#        106640
#        125374
#        143553
#        160098
#        177325
#        193809
#        211629
#        228812
#
# Disc length: 3272 seconds
#
# Revision: 0
# Processed by: cddbd v1.5.2PL0 Copyright (c) Steve Scherf et al.
# Submitted via: ExactAudioCopy v0.99pb4
#
DISCID=b50cc60e
DTITLE=Bad Boys Blue - Hungry For Love
DYEAR=2005
DGENRE=Pop
TTITLE0=Lovers In The Sand
TTITLE1=You're A Woman
TTITLE2=Hungry For Love
TTITLE3=Don't Walk Away, Suzanne
TTITLE4=Have You Ever Had A Love Like This
TTITLE5=I Need A Woman
TTITLE6=Hot Girls - Bad Boys
TTITLE7=Save Your Love
TTITLE8=I Do It All For You, Baby
TTITLE9=Heart Of Midnight
TTITLE10=I'll Be Good
TTITLE11=Don't Break The Heart
TTITLE12=I Wanna Fly
TTITLE13=Back To The Future
EXTD=
EXTT0=
EXTT1=
EXTT2=
EXTT3=
EXTT4=
EXTT5=
EXTT6=
EXTT7=
EXTT8=
EXTT9=
EXTT10=
EXTT11=
EXTT12=
EXTT13=
PLAYORDER=
